<svg width="25" height="25" viewBox="0 0 25 25" fill="none" xmlns="http://www.w3.org/2000/svg">
<path fill-rule="evenodd" clip-rule="evenodd" d="M16.7042 0.0244769C16.7224 -0.0014862 16.7582 -0.00779593 16.7842 0.0103837L18.5593 1.25335C18.5853 1.27153 18.5916 1.30731 18.5734 1.33327L16.1027 4.86176C17.3039 5.24549 18.1222 5.65941 18.1222 5.65941C18.1222 5.65941 16.122 9.1 12.7294 9.1C9.33679 9.1 6.92606 5.89331 6.92606 5.89331C6.92606 5.89331 7.78085 5.34779 9.04796 4.87992L6.33796 1.6503C6.3176 1.62602 6.32077 1.58982 6.34504 1.56945L8.00508 0.176499C8.02939 0.156126 8.06558 0.159293 8.08594 0.183573L11.5172 4.27284C11.811 4.23961 12.1104 4.22103 12.4124 4.22103C12.8466 4.22103 13.2802 4.25404 13.7035 4.31004L16.7042 0.0244769ZM17.3754 9.26294C18.2808 8.61635 19.6507 6.92872 19.6507 6.92872C19.6507 6.92872 23.15 9.70171 23.15 15.5815C23.15 21.4612 17.1003 25 17.1003 25C17.1003 25 14.2099 22.081 13.5003 18.3807C12.7907 14.6804 14.5499 10.5716 14.5499 10.5716C14.5499 10.5716 16.4701 9.90953 17.3754 9.26294V9.26294ZM7.62514 9.26294C6.7198 8.61635 5.34986 6.92872 5.34986 6.92872C5.34986 6.92872 1.85059 9.70171 1.85059 15.5815C1.85059 21.4612 7.90029 25 7.90029 25C7.90029 25 10.7907 22.081 11.5003 18.3807C12.2098 14.6804 10.4507 10.5716 10.4507 10.5716C10.4507 10.5716 8.53052 9.90953 7.62514 9.26294V9.26294Z" fill="#17171B"/>
</svg>
