<svg width="25" height="25" viewBox="0 0 25 25" fill="none" xmlns="http://www.w3.org/2000/svg">
<path fill-rule="evenodd" clip-rule="evenodd" d="M13.713 12.4454C13.8824 12.342 14.0262 12.1255 14.1421 11.8849C15.6677 12.5084 16.7398 13.9819 16.7398 15.7002C16.7398 17.9829 14.8478 19.8334 12.5138 19.8334C11.5557 19.8334 10.672 19.5216 9.96319 18.996C9.73067 18.8859 9.53936 18.7802 9.38281 18.6936C9.13999 18.5594 8.98076 18.4713 8.88106 18.4851C8.5896 18.5253 8.67422 18.7935 8.75112 19.0371C8.80332 19.2025 8.852 19.3567 8.77666 19.4203C8.69785 19.4869 8.44258 19.2435 8.14429 18.9591C7.73823 18.5719 7.25249 18.1088 7.02344 18.2479C6.84233 18.3579 7.01816 18.6563 7.2334 19.0215L7.24937 19.0486C7.34028 19.203 7.44565 19.3603 7.5418 19.5037C7.73726 19.7953 7.89468 20.0302 7.81592 20.07C7.7207 20.118 7.05733 19.6703 6.49829 19.0486C6.28252 18.8087 6.07354 18.5487 5.8793 18.307V18.307C5.45415 17.778 5.09995 17.3373 4.90112 17.3895C4.66194 17.4523 4.84288 17.9457 5.10874 18.4204C5.23306 18.6424 5.3793 18.8685 5.50591 19.0643V19.0643C5.70283 19.3687 5.8523 19.5997 5.7981 19.6281C5.72495 19.6664 5.08135 19.0388 4.64421 18.2479C4.38457 17.7781 4.16655 17.259 3.99004 16.8387C3.79863 16.3829 3.65605 16.0434 3.56216 16.0092C3.23596 15.8905 3.23596 16.5556 3.36679 17.5155C3.38386 17.6408 3.40927 17.7721 3.44057 17.9059C4.70933 22.011 8.60684 25 13.2181 25C18.8586 25 23.4311 20.5279 23.4311 15.0113C23.4311 9.76074 19.289 5.4564 14.0264 5.05342C14.033 4.80607 14.1621 4.31558 14.1621 4.31558C14.1621 4.31558 15.0912 2.06773 15.1403 1.5874C15.1435 1.55552 15.1474 1.52087 15.1515 1.48398C15.2094 0.964985 15.317 0 14.4869 0C14.0435 0 13.8374 0.329816 13.6016 0.707026V0.707031C13.511 0.851841 13.4161 1.00364 13.3018 1.14644C12.4781 2.17498 11.0932 3.45941 10.3079 4.14371C8.648 5.59004 7.01948 6.77871 6.06968 7.47197L6.06963 7.47202C5.63765 7.7873 5.34609 8.00015 5.25586 8.08809C4.57588 8.75098 2.13778 13.1487 2.13778 13.1487C2.13778 13.1487 1.34933 14.5597 1.62958 14.8458C1.90983 15.132 2.58565 15.0664 2.58565 15.0664C2.58565 15.0664 11.6648 12.9835 12.4776 12.8193C12.6965 12.775 12.851 12.7495 12.9696 12.7299C13.2916 12.6768 13.3494 12.6672 13.713 12.4454ZM7.2937 9.76875C6.80635 10.232 5.9981 11.3377 5.9981 11.3377C5.9981 11.3377 7.50025 11.4302 8.32754 10.6438C9.15488 9.85742 8.96533 8.51724 8.96533 8.51724C8.96533 8.51724 7.78101 9.30552 7.2937 9.76875Z" fill="#17171B"/>
</svg>
