<svg width="25" height="25" viewBox="0 0 25 25" fill="none" xmlns="http://www.w3.org/2000/svg">
<g clip-path="url(#clip0_14_219)">
<path fill-rule="evenodd" clip-rule="evenodd" d="M4.31121 2.0784C4.61376 0.883858 5.69595 0 6.98452 0C7.95107 0 8.80151 0.4973 9.2939 1.25H10.1002C10.6011 0.735918 11.301 0.416667 12.0754 0.416667C13.2109 0.416667 14.1861 1.10294 14.6088 2.08333H15.2839C15.7069 1.81926 16.2067 1.66667 16.7421 1.66667C17.8776 1.66667 18.8527 2.35294 19.2755 3.33333H21.1112C21.1269 3.33333 21.1416 3.33756 21.1542 3.34493C21.238 3.33726 21.3229 3.33333 21.4087 3.33333C22.9317 3.33333 24.1663 4.56794 24.1663 6.09092V14.3597L24.1664 14.375L24.1663 14.3903V14.5094C24.1663 14.5599 24.1649 14.6101 24.1622 14.6601C23.9963 20.3963 18.8383 25 12.4997 25C6.05635 25 0.833008 20.243 0.833008 14.375C0.833008 11.5425 2.05004 8.9689 4.03386 7.06421C4.02892 9.82559 4.07556 12.6804 4.29056 12.6314C4.86626 12.5001 4.41646 3.94724 4.31121 2.0784Z" fill="#17171B"/>
</g>
<defs>
<clipPath id="clip0_14_219">
<rect width="25" height="25" fill="white"/>
</clipPath>
</defs>
</svg>
