<svg width="25" height="25" viewBox="0 0 25 25" fill="none" xmlns="http://www.w3.org/2000/svg">
<path fill-rule="evenodd" clip-rule="evenodd" d="M17.2089 19.3064C17.5178 18.1769 16.9182 15.855 16.9182 15.855C16.9182 15.855 16.4834 17.7465 15.8039 18.4457C15.2242 19.042 14.514 19.4556 13.4954 19.5643C14.3282 19.1598 14.9009 18.3164 14.9009 17.3416C14.9009 15.9731 13.7724 14.8637 12.3803 14.8637C10.9882 14.8637 9.85963 15.9731 9.85963 17.3416C9.85963 17.7153 9.94386 18.0697 10.0946 18.3875C9.22389 17.6939 9.08697 16.5817 9.08697 16.5817C9.08697 16.5817 8.11471 20.6184 10.7937 22.5172C13.4727 24.416 18.7207 22.7839 18.7207 22.7839C18.7207 22.7839 11.2105 28.0682 5.64532 22.3169C0.851412 17.3625 4.3941 10.84 4.3941 10.84C4.3941 10.84 4.24111 11.4451 4.24111 12.1475C4.24111 12.8499 4.62193 13.3843 4.62193 13.3843C4.62193 13.3843 5.75792 10.9898 6.642 10.016C7.47872 9.09444 8.5276 8.34698 9.43355 7.70137C10.1309 7.2044 10.7436 6.76778 11.1095 6.35855C13.125 4.10492 11.8892 0 11.8892 0C11.8892 0 14.1612 2.00293 14.7955 4.58974C15.0373 5.57578 14.8817 6.69771 14.7426 7.70098C14.5169 9.32969 14.3344 10.6458 15.9655 10.5604C18.6013 10.4223 16.3109 6.35855 16.3109 6.35855C16.3109 6.35855 22.29 9.50113 21.8433 14.9973C21.3966 20.4935 15.3078 21.743 15.3078 21.743C15.3078 21.743 16.9 20.4358 17.2089 19.3064Z" fill="#17171B"/>
</svg>
