<svg width="25" height="25" viewBox="0 0 25 25" fill="none" xmlns="http://www.w3.org/2000/svg">
<path fill-rule="evenodd" clip-rule="evenodd" d="M8.72619 23.3347C12.3885 23.3347 15.5238 21.2993 16.8182 18.4139C16.834 18.3787 11.6215 19.7685 11.7877 19.2772C11.8619 19.0578 15.0572 17.8906 17.3852 16.529C18.7232 15.7465 19.3394 14.0899 19.3394 14.0899C19.3394 14.0899 17.0851 15.1844 15.9455 15.462C13.6491 16.0216 11.6275 15.9613 11.6275 15.903C11.6275 15.7769 14.9842 15.1391 19.6496 12.2961C21.8441 10.9589 22.4402 8.65543 22.4402 8.65543C22.4402 8.65543 20.0275 10.0925 18.569 10.567C15.1102 11.6922 11.9539 12.0312 11.9539 11.879C11.9539 11.553 14.7316 10.7892 17.6766 9.36217C19.2079 8.62023 20.534 7.65089 22.0707 6.57291C24.5853 4.80919 25 1.66797 25 1.66797C25 1.66797 22.5199 3.26759 21.3096 3.7988C16.3155 5.99078 11.9057 7.14059 8.72619 7.38951C3.92657 7.7653 0 11.1141 0 15.462C0 19.8099 3.90684 23.3347 8.72619 23.3347Z" fill="#17171B"/>
</svg>
