<svg width="25" height="25" viewBox="0 0 25 25" fill="none" xmlns="http://www.w3.org/2000/svg">
<g clip-path="url(#clip0_14_215)">
<path fill-rule="evenodd" clip-rule="evenodd" d="M4.64959 21.8085C4.56051 21.7247 4.4724 21.6392 4.38532 21.5522C-0.211774 16.9551 -0.211773 9.50172 4.38532 4.90465C8.98239 0.307541 23.6305 0 23.6305 0C23.6305 0 25.63 16.9551 21.0329 21.5522C16.9501 25.635 10.6143 26.0917 6.02743 22.9224L9.72338 18.3869L15.6317 17.1113L10.8088 16.6291L13.8738 13.5084L17.3627 12.7441L14.6039 11.927L17.3627 6.95017L13.4385 11.3518L11.9232 9.21337L12.4566 12.7441L9.72338 15.8253L8.4564 11.927V17.1113L4.64959 21.8085Z" fill="#17171B"/>
</g>
<defs>
<clipPath id="clip0_14_215">
<rect width="25" height="25" fill="white"/>
</clipPath>
</defs>
</svg>
