<svg width="25" height="25" viewBox="0 0 25 25" fill="none" xmlns="http://www.w3.org/2000/svg">
<path d="M12.1278 4.64939L5.91863 1.57422L6.10643 8.44732L11.969 11.3508L12.1278 4.64939Z" fill="#17171B"/>
<path d="M19.0212 8.53101L18.9423 1.6025L12.9036 4.89013L12.9781 11.432L19.0212 8.53101Z" fill="#17171B"/>
<path d="M19.0177 15.9419L25 12.5201L19.0146 9.37214L13.0319 12.5147L19.0177 15.9419Z" fill="#17171B"/>
<path d="M11.9681 12.5201L5.98583 15.9419L0 12.5147L5.98272 9.37214L11.9681 12.5201Z" fill="#17171B"/>
<path d="M19.1113 23.3613L12.9021 20.2861L13.0609 13.5846L18.9235 16.4882L19.1113 23.3613Z" fill="#17171B"/>
<path d="M6.05413 16.4953L6.13306 23.4238L12.1718 20.1362L12.0973 13.5944L6.05413 16.4953Z" fill="#17171B"/>
</svg>
