<svg width="25" height="25" viewBox="0 0 25 25" fill="none" xmlns="http://www.w3.org/2000/svg">
<path fill-rule="evenodd" clip-rule="evenodd" d="M19.3027 11.9748C19.3013 11.9728 19.3007 11.9704 19.3011 11.968L20.8928 2.68708C20.8935 2.68281 20.8972 2.67969 20.9015 2.67969H21.4053C21.4092 2.67969 21.4126 2.68221 21.4137 2.68591L24.9996 14.0395C25.0007 14.043 24.9995 14.0469 24.9966 14.0492L22.3527 16.1135C22.3487 16.1165 22.343 16.1158 22.3401 16.1117L19.3027 11.9748ZM0 18.1273C0 18.1312 0.00247515 18.1346 0.00613433 18.1358L5.45624 19.9178C5.45887 19.9187 5.46179 19.9182 5.46408 19.9167L17.6463 11.5063C17.6484 11.5049 17.6498 11.5027 17.6501 11.5003L18.9565 2.73467C18.9573 2.72929 18.9531 2.72446 18.9477 2.72446H8.15724C8.15456 2.72446 8.15208 2.72564 8.15037 2.72768L0.00204781 12.5574C0.000724087 12.559 0 12.561 0 12.5631V18.1273ZM7.72732 20.3718L13.6815 22.3222C13.6841 22.3231 13.6871 22.3227 13.6894 22.321L20.7782 17.2362C20.7821 17.2334 20.7831 17.228 20.7804 17.224L18.123 13.2695C18.1203 13.2654 18.1147 13.2643 18.1106 13.2672L7.72732 20.3718Z" fill="#17171B"/>
</svg>
