<svg width="25" height="25" viewBox="0 0 25 25" fill="none" xmlns="http://www.w3.org/2000/svg">
<path fill-rule="evenodd" clip-rule="evenodd" d="M0.00249564 12.514C-0.000830304 12.5084 -0.000831974 12.5013 0.0024912 12.4956L6.28883 1.75509C6.2921 1.74952 6.29811 1.74609 6.30455 1.74609H18.7644C18.7709 1.74609 18.7769 1.74955 18.7802 1.75517L24.9975 12.4957C25.0008 12.5013 25.0008 12.5083 24.9975 12.5139L18.7802 23.2424C18.7769 23.248 18.7709 23.2515 18.7644 23.2515H6.30455C6.29811 23.2515 6.2921 23.2481 6.28883 23.2425L0.00249564 12.514ZM18.2919 12.4988C18.2919 15.6965 15.6996 18.2887 12.502 18.2887C9.30431 18.2887 6.71207 15.6965 6.71207 12.4988C6.71207 9.30108 9.30431 6.70889 12.502 6.70889C15.6996 6.70889 18.2919 9.30108 18.2919 12.4988Z" fill="#17171B"/>
</svg>
