<svg width="25" height="25" viewBox="0 0 25 25" fill="none" xmlns="http://www.w3.org/2000/svg">
<path fill-rule="evenodd" clip-rule="evenodd" d="M20.6097 16.9204C20.6097 21.3827 16.9787 25 12.4997 25C8.02062 25 4.38965 21.3827 4.38965 16.9204C4.38965 12.5806 12.061 0.661548 12.4817 0.011124C12.4913 -0.0037081 12.5081 -0.00370797 12.5177 0.0111242C12.9384 0.661548 20.6097 12.5806 20.6097 16.9204ZM11.1478 22.4097C7.03235 21.5093 7.73658 16.9505 7.73658 16.9505C7.73658 16.9505 8.86036 19.7024 11.5875 20.5939C14.3146 21.4853 17.6102 20.1779 17.6102 20.1779C17.6102 20.1779 15.2632 23.3102 11.1478 22.4097Z" fill="#17171B"/>
</svg>
